<?xml version="1.0" encoding="iso-8859-1"?>
<!-- Uploaded to: SVG Repo, www.svgrepo.com, Generator: SVG Repo Mixer Tools -->
<svg height="800px" width="800px" version="1.1" id="Capa_1" xmlns="http://www.w3.org/2000/svg" xmlns:xlink="http://www.w3.org/1999/xlink" 
	 viewBox="0 0 400 400" xml:space="preserve">
<g>
	<g>
		<path style="fill:#5D505B;" d="M400,318.644C400,363.577,364.018,400,319.633,400H80.365C35.98,400,0,363.577,0,318.644V81.356
			C0,36.423,35.98,0,80.365,0h239.268C364.018,0,400,36.423,400,81.356V318.644z"/>
		<path style="fill:#534551;" d="M112.491,330.037L185.63,400h134.003C364.018,400,400,363.577,400,318.644V156.576L293.46,67.827
			l-92.528,63.441L112.491,330.037z"/>
		<g>
			<path style="fill:#7996B1;" d="M316.136,278.61c0,7.684-6.155,13.912-13.745,13.912h-17.866c-7.59,0-13.742-6.229-13.742-13.912
				v-48.696c0-7.686,6.152-13.914,13.742-13.914h17.866c7.59,0,13.745,6.229,13.745,13.914V278.61z"/>
			<path style="fill:#7996B1;" d="M129.216,278.61c0,7.684-6.153,13.912-13.743,13.912H97.607c-7.59,0-13.745-6.229-13.745-13.912
				v-48.696c0-7.686,6.155-13.914,13.745-13.914h17.866c7.59,0,13.743,6.229,13.743,13.914V278.61z"/>
			<path style="fill:#C3E05E;" d="M293.456,291.59c0,7.686-6.151,13.914-13.743,13.914H120.285c-7.59,0-13.745-6.229-13.745-13.914
				V93.097c0-7.684,6.155-13.912,13.745-13.912h159.428c7.592,0,13.743,6.229,13.743,13.912L293.456,291.59L293.456,291.59z"/>
			<path style="fill:#7996B1;" d="M291.396,320.349c0,7.686-6.155,13.914-13.745,13.914H122.348
				c-7.592,0-13.745-6.229-13.745-13.914v-0.933c0-7.684,6.152-13.912,13.745-13.912H277.65c7.59,0,13.745,6.229,13.745,13.912
				v0.933H291.396z"/>
			<path style="fill:#7996B1;" d="M299.986,125.565c0,7.683-6.152,13.912-13.744,13.912H113.754
				c-7.586,0-13.743-6.229-13.743-13.912V79.651c0-7.684,6.157-13.914,13.743-13.914h172.488c7.592,0,13.744,6.23,13.744,13.914
				V125.565z"/>
			<path style="fill:#736771;" d="M165.638,301.567c0,7.169-5.744,12.983-12.828,12.983l0,0c-7.084,0-12.828-5.814-12.828-12.983
				V130.438c0-7.174,5.744-12.988,12.828-12.988l0,0c7.084,0,12.828,5.814,12.828,12.988V301.567z"/>
			<path style="fill:#736771;" d="M260.011,301.567c0,7.169-5.741,12.983-12.823,12.983l0,0c-7.086,0-12.83-5.814-12.83-12.983
				V130.438c0-7.174,5.744-12.988,12.83-12.988l0,0c7.082,0,12.823,5.814,12.823,12.988V301.567z"/>
			<path style="fill:#5D505B;" d="M163.117,193.393h-20.615c-7.59,0-13.745,6.229-13.745,13.912v17.391
				c0,7.686,6.155,13.914,13.745,13.914h20.615c7.59,0,13.745-6.229,13.745-13.914v-17.391
				C176.862,199.621,170.707,193.393,163.117,193.393z M156.934,228.474v-8.296c0-2.309-1.845-4.178-4.123-4.178
				c-2.28,0-4.127,1.869-4.127,4.178v8.296h-2.098c-3.936,0-7.136-3.239-7.136-7.224v-10.5c0-3.984,3.2-7.224,7.136-7.224h12.447
				c3.936,0,7.138,3.239,7.138,7.224v10.5c0,3.984-3.202,7.224-7.138,7.224H156.934z"/>
			<path style="fill:#5D505B;" d="M257.492,193.393h-20.615c-7.592,0-13.745,6.229-13.745,13.912v17.391
				c0,7.686,6.153,13.914,13.745,13.914h20.615c7.59,0,13.744-6.229,13.744-13.914v-17.391
				C271.236,199.621,265.082,193.393,257.492,193.393z M251.309,228.474v-8.296c0-2.309-1.847-4.178-4.121-4.178
				c-2.282,0-4.129,1.869-4.129,4.178v8.296h-2.098c-3.936,0-7.136-3.239-7.136-7.224v-10.5c0-3.984,3.2-7.224,7.136-7.224h12.449
				c3.934,0,7.136,3.239,7.136,7.224v10.5c0,3.984-3.202,7.224-7.136,7.224H251.309z"/>
		</g>
		<path style="opacity:0.28;fill:#534551;enable-background:new    ;" d="M291.396,320.349v-0.933
			c0-7.684-6.155-13.912-13.745-13.912h2.062c7.281,0,13.221-5.732,13.697-12.981h8.98c7.59,0,13.745-6.229,13.745-13.912v-48.696
			c0-7.686-6.155-13.914-13.745-13.914h-8.935V137.39c3.915-2.45,6.53-6.824,6.53-11.824V79.652c0-7.684-6.152-13.914-13.744-13.914
			H200v268.525h77.65C285.24,334.263,291.396,328.034,291.396,320.349z"/>
	</g>
</g>
</svg>